<svg width="50" height="50" viewBox="0 0 50 50" fill="none" xmlns="http://www.w3.org/2000/svg">
<rect width="50" height="50" rx="12" fill="#0A0A0A"/>
<path d="M12.662 19.5071C12.662 27.7889 24.155 36.9157 25.0001 36.4086C25.8451 36.9157 37.3382 27.7889 37.3382 19.5071C37.3382 11.9014 32.4368 7 25.0001 7C17.5634 7 12.662 11.9014 12.662 19.5071Z" fill="#FAFAFA"/>
<path d="M25.6406 42.9996H24.0216C23.5839 42.9996 23.1971 42.715 23.0669 42.2972L22.5313 40.5788C22.3306 39.935 22.8116 39.2812 23.486 39.2812H26.1762C26.8505 39.2812 27.3315 39.935 27.1309 40.5788L26.5953 42.2972C26.4651 42.715 26.0783 42.9996 25.6406 42.9996Z" fill="#FAFAFA"/>
</svg>
