<svg width="50" height="50" viewBox="0 0 50 50" fill="none" xmlns="http://www.w3.org/2000/svg">
<rect width="50" height="50" rx="12" fill="#0A0A0A"/>
<path d="M12.8845 38.2467C12.0196 37.3818 12.0196 35.9795 12.8845 35.1146L33.9554 14.0437C34.8203 13.1788 36.2226 13.1788 37.0875 14.0437C37.9524 14.9086 37.9524 16.3109 37.0875 17.1758L16.0166 38.2467C15.1517 39.1117 13.7494 39.1117 12.8845 38.2467Z" fill="#FAFAFA"/>
<path d="M10.6487 19.2078C9.78377 18.3429 9.78377 16.9406 10.6487 16.0757L14.9722 11.7522C15.8371 10.8873 17.2394 10.8873 18.1043 11.7522C18.9692 12.6171 18.9692 14.0194 18.1043 14.8843L13.7808 19.2078C12.9159 20.0727 11.5136 20.0727 10.6487 19.2078Z" fill="#FAFAFA"/>
<path d="M39.3513 19.2079C40.2162 18.343 40.2162 16.9407 39.3513 16.0758L35.0278 11.7522C34.1629 10.8873 32.7606 10.8873 31.8957 11.7522C31.0308 12.6171 31.0308 14.0194 31.8957 14.8843L36.2192 19.2079C37.0841 20.0728 38.4864 20.0728 39.3513 19.2079Z" fill="#FAFAFA"/>
<path d="M37.0875 38.2467C37.9524 37.3818 37.9524 35.9795 37.0875 35.1146L16.0166 14.0437C15.1517 13.1788 13.7494 13.1788 12.8845 14.0437C12.0196 14.9086 12.0196 16.3109 12.8845 17.1758L33.9554 38.2467C34.8203 39.1117 36.2226 39.1117 37.0875 38.2467Z" fill="#FAFAFA"/>
<path d="M27.0857 25.9839C27.0857 27.2015 26.0986 28.1886 24.881 28.1886C23.6634 28.1886 22.6764 27.2015 22.6764 25.9839C22.6764 24.7664 23.6634 23.7793 24.881 23.7793C26.0986 23.7793 27.0857 24.7664 27.0857 25.9839Z" fill="#0A0A0A"/>
</svg>
