<svg width="50" height="50" viewBox="0 0 50 50" fill="none" xmlns="http://www.w3.org/2000/svg">
<rect width="50" height="50" rx="12" fill="#0A0A0A"/>
<path fill-rule="evenodd" clip-rule="evenodd" d="M9.9019 14.0386C18.3012 14.0386 26.8069 12.9931 27.0198 21.7889C27.0198 30.1854 18.0896 29.2174 13.0924 29.2173V34.061H28.1905L33.3991 27.3881L27.3396 19.2061H30.7415L35.2075 25.0193L39.6717 19.2061H42.8623L36.9076 27.3881L42.0113 34.061H43.5V36H39.8849L34.9943 29.5411L30.1038 36H6.5V34.061H9.9019V14.0386ZM23.9377 21.5749C23.9377 16.0849 18.1957 16.8372 13.0924 16.8373V26.4186C18.4082 26.311 23.9373 27.2795 23.9377 21.5749Z" fill="#FAFAFA"/>
</svg>
