<svg width="50" height="50" viewBox="0 0 50 50" fill="none" xmlns="http://www.w3.org/2000/svg">
<rect width="50" height="50" rx="12" fill="#0A0A0A"/>
<path d="M21.9358 34.5783L18.1055 36.7931C18.1055 36.7931 15.8074 34.5783 14.2753 31.6251C12.7432 28.672 18.1055 23.504 18.1055 23.504M21.9358 34.5783H28.0642M21.9358 34.5783C21.9358 34.5783 17.3395 24.2423 18.8716 18.336C20.4037 12.4297 25 8 25 8C25 8 29.5963 12.4297 31.1284 18.336C32.6605 24.2423 28.0642 34.5783 28.0642 34.5783M28.0642 34.5783L31.8945 36.7931C31.8945 36.7931 34.1926 34.5783 35.7247 31.6251C37.2568 28.672 31.8945 23.504 31.8945 23.504M25 42L26.5321 37.5703H23.4679L25 42ZM25.7661 19.0743C26.1891 19.482 26.1891 20.1431 25.7661 20.5509C25.343 20.9586 24.657 20.9586 24.234 20.5509C23.8109 20.1431 23.8109 19.482 24.234 19.0743C24.657 18.6665 25.343 18.6665 25.7661 19.0743Z" stroke="#FAFAFA" stroke-width="2.5" stroke-linecap="round" stroke-linejoin="round"/>
</svg>
