<svg width="50" height="50" viewBox="0 0 50 50" fill="none" xmlns="http://www.w3.org/2000/svg">
<rect width="50" height="50" rx="12" fill="#0A0A0A"/>
<path d="M24.6562 10.0137C30.5723 9.67601 33.8267 15.3304 33.6982 22.2002C36.8123 23.295 43.2964 29.7269 40.2539 35.2119C37.3309 40.4811 32.0267 41.4677 24.999 37.5254C22.4278 39.4109 13.5136 42.7536 9.87109 35.7686C7.17674 30.6011 10.7714 24.7981 16.085 22.2002C15.9136 19.1806 17.1143 10.4445 24.6562 10.0137ZM16.5566 26.7285C15.014 27.757 12.5712 30.4143 13.5566 33.3711C14.5208 36.2637 18.6564 36.2422 21.2275 34.8281C18.6136 32.1713 17.2766 29.2311 16.5566 26.7285ZM33.2266 26.7285C32.6781 30.5337 29.9129 33.7138 28.5986 34.8281C31.0841 36.0708 35.0814 36.1778 36.3545 33.3711C37.5388 30.7599 33.9693 27.1142 33.2266 26.7285ZM29.3701 24.7148C27.8703 24.1292 23.9785 23.3093 20.4131 24.7148C20.5988 26.2861 21.6135 29.9856 24.9131 32.5996C26.5272 31.314 29.1987 27.8859 29.3701 24.7148ZM24.9131 14.3877C22.3848 14.3877 20.9707 16.9586 20.2422 20.3438C22.2991 19.7439 25.4701 19.4011 29.498 20.3438C29.498 18.3726 27.6128 14.3877 24.9131 14.3877Z" fill="#FAFAFA"/>
</svg>
