<svg width="50" height="50" viewBox="0 0 50 50" fill="none" xmlns="http://www.w3.org/2000/svg">
<rect width="50" height="50" rx="12" fill="#0A0A0A"/>
<path d="M13.4413 40.5667C17.1441 36.8934 24.051 31.9257 24.1176 23.7387C24.1208 23.35 24.2194 22.9661 24.408 22.6262C26.0646 19.6402 28.3803 13.7653 28.3803 21.0058C28.3803 35.2363 31.4531 37.677 34.1788 39.5453C35.4914 40.445 34.8042 41.9998 33.2128 41.9998H14.0462C13.6814 41.9998 13.3576 41.7664 13.2423 41.4204C13.1423 41.1205 13.2169 40.7893 13.4413 40.5667Z" fill="#FAFAFA"/>
<path d="M21.2637 14.3789C20.6728 15.5607 21.5243 16.6971 22.498 17.4816C23.1896 18.0389 24.1726 17.8481 24.7522 17.1751C26.3157 15.3598 28.2552 12.8119 28.0242 11.8881C27.6684 10.4648 23.7545 6.90646 24.8217 8.32978C25.889 9.7531 22.3312 12.2439 21.2637 14.3789Z" fill="#FAFAFA"/>
</svg>
