<svg width="50" height="50" viewBox="0 0 50 50" fill="none" xmlns="http://www.w3.org/2000/svg">
<rect width="50" height="50" rx="12" fill="#0A0A0A"/>
<path fill-rule="evenodd" clip-rule="evenodd" d="M35.7381 14.762C33.4799 15.4936 33.2409 15.582 33.3306 15.6515C33.3528 15.6688 34.4323 16.0627 35.7295 16.5269L38.0879 17.371L40.2778 16.5783C41.4823 16.1423 42.5766 15.7439 42.7097 15.693L42.9516 15.6003L42.749 15.522C42.6375 15.4789 41.5435 15.1188 40.318 14.7218L38.0897 14L35.7381 14.762ZM9.83065 14.9182L7 14.9439V16.107V17.2701H8.1129H9.22581V25.8101C9.22581 30.5584 9.26306 34.3502 9.30961 34.3502C9.38432 34.3502 11.9535 31.6637 18.129 25.1282C19.8408 23.3166 22.7545 20.2476 26.6694 16.1327C27.2416 15.5313 27.7097 15.0062 27.7098 14.9658C27.7098 14.9254 26.2745 14.9143 24.5203 14.941L21.3309 14.9895L17.0929 18.9116L12.8548 22.8338L12.8295 18.9154C12.8156 16.7603 12.7721 14.9735 12.7327 14.9446C12.6934 14.9159 11.3875 14.904 9.83065 14.9182ZM33.2258 19.4357V22.2806L35.294 23.2205C36.4315 23.7374 37.3902 24.1604 37.4244 24.1604C37.4587 24.1604 37.4752 22.8439 37.4611 21.2349L37.4355 18.3094L35.3643 17.4501C34.2253 16.9775 33.2781 16.5907 33.2595 16.5907C33.241 16.5907 33.2258 17.871 33.2258 19.4357ZM40.7258 17.466L38.6935 18.325L38.6679 21.2427C38.6539 22.8474 38.6791 24.1604 38.724 24.1604C38.8364 24.1604 42.7286 22.409 42.879 22.2908L43 22.1957V20.8644C43 19.1439 42.8895 16.5884 42.8155 16.5989C42.7839 16.6034 41.8435 16.9936 40.7258 17.466ZM23.2417 23.8714C22.5155 23.9943 21.7132 24.2528 21.1099 24.5582L20.5484 24.8425V26.4908V28.1393H21.9516H23.3548V27.4551C23.3548 26.6373 23.5111 26.2842 23.97 26.0659C24.5844 25.7736 25.4324 25.9333 25.6745 26.3871C25.8176 26.6552 25.7973 27.1336 25.6289 27.4602C25.5415 27.6298 24.6645 28.3561 23.4273 29.2834C21.2087 30.9465 20.6208 31.5012 20.4595 32.0837C20.4025 32.2894 20.3557 33.2548 20.3554 34.2289L20.3548 36H24.6129H28.871V34.0566V32.1132L27.3468 32.14L25.8226 32.1667L25.7733 32.7207C25.7463 33.0253 25.6754 33.3236 25.6159 33.3832C25.4474 33.5522 24.8253 33.666 24.0565 33.6686L23.3548 33.6709V33.3929C23.3548 33.2399 23.4467 32.9978 23.5588 32.8547C23.671 32.7117 24.6189 31.9466 25.6653 31.1545C27.7196 29.5993 28.2909 29.0553 28.6094 28.3504L28.8144 27.8966L28.8129 26.9262L28.8115 25.9557L28.5954 25.5092C27.9985 24.2755 26.8054 23.7589 24.6129 23.7843C24.1073 23.7902 23.4902 23.8294 23.2417 23.8714Z" fill="#FAFAFA"/>
</svg>
