<svg width="50" height="50" viewBox="0 0 50 50" fill="none" xmlns="http://www.w3.org/2000/svg">
<rect width="50" height="50" rx="12" fill="#0A0A0A"/>
<path d="M24.0943 22.603L23.9581 8.49701C23.9473 7.38439 22.4006 7.11843 22.0188 8.16356L18.47 17.879C18.3804 18.1241 18.1986 18.3245 17.9634 18.4374L11.1428 21.7111C10.1835 22.1715 10.5115 23.6126 11.5755 23.6126H23.0944C23.6504 23.6126 24.0997 23.159 24.0943 22.603Z" fill="#FAFAFA"/>
<path d="M26.2941 22.6126V11.3849C26.2941 10.3423 27.6898 9.99548 28.1778 10.9168L31.8864 17.9187C32.0032 18.1391 32.198 18.3079 32.4328 18.392L41.5829 21.6712C42.6388 22.0496 42.3671 23.6126 41.2455 23.6126H27.2941C26.7418 23.6126 26.2941 23.1649 26.2941 22.6126Z" fill="#FAFAFA"/>
<path d="M26.2941 41.4643V26.991C26.2941 26.4387 26.7418 25.991 27.2941 25.991H38.8328C39.8851 25.991 40.2235 27.4073 39.2849 27.883L32.416 31.3641C32.1922 31.4776 32.0191 31.6711 31.9313 31.9062L28.2309 41.8141C27.8411 42.8578 26.2941 42.5783 26.2941 41.4643Z" fill="#FAFAFA"/>
<path d="M24.1041 38.5368V26.991C24.1041 26.4387 23.6564 25.991 23.1041 25.991H8.83963C7.71522 25.991 7.44655 27.5599 8.5069 27.934L18.333 31.401C18.586 31.4903 18.7925 31.6774 18.9062 31.9204L22.1982 38.9604C22.6513 39.9293 24.1041 39.6064 24.1041 38.5368Z" fill="#FAFAFA"/>
</svg>
