<svg width="50" height="50" viewBox="0 0 50 50" fill="none" xmlns="http://www.w3.org/2000/svg">
<rect width="50" height="50" rx="12" fill="#FAFAFA"/>
<path d="M29.4992 16.3108C26.723 15.2826 23.9469 15.1798 20.5538 16.3108C16.8522 14.2545 14.3845 9.52474 12.2253 10.0388C10.0661 10.5528 10.683 18.8813 10.683 24.4336C9.44915 26.0788 8.98175 28.1538 9.34689 30.0888C12.0202 42.9414 36.9034 43.6612 40.6044 30.0888C41.2492 27.7239 39.8846 25.0506 39.37 24.4336C39.37 18.7785 39.9869 10.1554 37.9305 10.0388C35.1543 9.88123 32.8923 14.3572 29.4992 16.3108Z" stroke="#0A0A0A" stroke-width="2.5"/>
<path d="M27.2378 31.8807C27.2378 31.058 22.4053 31.0528 22.4053 31.8807C22.4053 33.1144 24.7701 34.2455 24.7701 34.2455C24.7701 34.2455 27.2379 33.1612 27.2378 31.8807Z" fill="#0A0A0A"/>
<path d="M19.6287 25.4026C18.7033 24.6829 16.2742 24.066 15.3102 25.6084C14.4536 26.9789 15.5513 28.6123 16.9554 29.4126C18.3595 30.213 21.2738 29.721 21.2738 28.4872C21.2738 27.2535 20.5541 26.1223 19.6287 25.4026Z" fill="#0A0A0A"/>
<path d="M30.1164 25.3303C31.0418 24.6107 33.4709 23.9937 34.4349 25.5361C35.2915 26.9066 34.1938 28.54 32.7897 29.3404C31.3857 30.1407 28.4713 29.6488 28.4713 28.415C28.4713 27.1812 29.191 26.05 30.1164 25.3303Z" fill="#0A0A0A"/>
</svg>
