<svg width="50" height="50" viewBox="0 0 50 50" fill="none" xmlns="http://www.w3.org/2000/svg">
<rect width="50" height="50" rx="12" fill="#FAFAFA"/>
<path d="M7.00964 28.3398C7.98741 32.3572 10.2796 35.9327 13.522 38.4983C16.7645 41.0638 20.7712 42.4724 24.9058 42.5001C29.0404 42.5278 33.0657 41.1731 36.3422 38.6512C39.6188 36.1294 41.9586 32.5849 42.9902 28.581" stroke="#0A0A0A" stroke-width="3" stroke-linecap="round"/>
<path d="M13 33.5C15.5 36.5 19.4795 38.7199 24 37.5C28.5205 36.2801 32 33 36.5 35" stroke="#0A0A0A" stroke-width="2" stroke-linecap="round"/>
<path d="M13 29C15.5 32 19.4795 34.2199 24 33C28.5205 31.7801 32 28.5 36.5 30.5" stroke="#0A0A0A" stroke-width="2" stroke-linecap="round"/>
<path d="M25.5 29.5C22 31 23.7729 34.9115 24.9198 36C26.5002 37.5 25.4198 41 23.4198 42" stroke="#0A0A0A" stroke-width="2" stroke-linecap="round"/>
<path d="M18.9217 24.1605L24.4467 9.84402C24.7723 9.00028 25.9616 8.98782 26.3048 9.82455L32.1723 24.1287C32.3706 24.6122 32.1633 25.1668 31.6965 25.4016L25.8147 28.3599C25.5241 28.506 25.1807 28.5017 24.8939 28.3484L19.3831 25.4024C18.9378 25.1643 18.7398 24.6316 18.9217 24.1605Z" fill="#0A0A0A"/>
</svg>
