<svg width="50" height="50" viewBox="0 0 50 50" fill="none" xmlns="http://www.w3.org/2000/svg">
<rect width="50" height="50" rx="12" fill="#FAFAFA"/>
<path d="M24.6562 10.0146C30.5723 9.67699 33.8268 15.3312 33.6982 22.2012C36.8124 23.2963 43.2963 29.7271 40.2539 35.2119C37.331 40.4812 32.0266 41.4685 24.999 37.5264C22.4279 39.4119 13.5137 42.7543 9.87109 35.7695C7.17642 30.6021 10.7714 24.7992 16.085 22.2012C15.9135 19.1818 17.1141 10.4455 24.6562 10.0146ZM16.5566 26.7295C15.014 27.758 12.5714 30.4145 13.5566 33.3711C14.5209 36.2638 18.6564 36.2423 21.2275 34.8281C18.6137 32.1714 17.2766 29.232 16.5566 26.7295ZM33.2266 26.7295C32.678 30.5344 29.9129 33.7137 28.5986 34.8281C31.0841 36.0708 35.0814 36.1779 36.3545 33.3711C37.5385 30.7601 33.9696 27.1155 33.2266 26.7295ZM29.3701 24.7148C27.8703 24.1292 23.9785 23.3093 20.4131 24.7148C20.5988 26.2861 21.6134 29.9866 24.9131 32.6006C26.5272 31.315 29.1987 27.886 29.3701 24.7148ZM24.9131 14.3877C22.3849 14.3877 20.9707 16.9588 20.2422 20.3438C22.2991 19.7439 25.4702 19.4011 29.498 20.3438C29.4978 18.3726 27.6126 14.3878 24.9131 14.3877Z" fill="#0A0A0A"/>
</svg>
