<svg width="50" height="50" viewBox="0 0 50 50" fill="none" xmlns="http://www.w3.org/2000/svg">
<rect width="50" height="50" rx="12" fill="#FAFAFA"/>
<path d="M25 40L24.2602 41.0076C24.7027 41.3325 25.3054 41.3306 25.7459 41.0031L25 40ZM11.5341 30.1136H10.2841C10.2841 30.5116 10.4736 30.8857 10.7943 31.1212L11.5341 30.1136ZM38.2955 30.1136L39.0413 31.1167C39.3585 30.8809 39.5455 30.5089 39.5455 30.1136H38.2955ZM11.5341 21.4205L10.8112 20.4007C10.4806 20.6351 10.2841 21.0152 10.2841 21.4205H11.5341ZM25 11.875L25.729 10.8596L25.0046 10.3395L24.2771 10.8552L25 11.875ZM38.2955 21.4205H39.5455C39.5455 21.0178 39.3515 20.6399 39.0245 20.405L38.2955 21.4205ZM9.25 34.3977C8.69772 34.8119 8.58579 35.5954 9 36.1477C9.41421 36.7 10.1977 36.8119 10.75 36.3977L10 35.3977L9.25 34.3977ZM16.8864 31.7955C17.4386 31.3812 17.5506 30.5977 17.1364 30.0455C16.7222 29.4932 15.9386 29.3812 15.3864 29.7955L16.1364 30.7955L16.8864 31.7955ZM13.3409 37.4659C12.7886 37.8801 12.6767 38.6636 13.0909 39.2159C13.5051 39.7682 14.2886 39.8801 14.8409 39.4659L14.0909 38.4659L13.3409 37.4659ZM20.9773 34.8636C21.5296 34.4494 21.6415 33.6659 21.2273 33.1136C20.8131 32.5614 20.0296 32.4494 19.4773 32.8636L20.2273 33.8636L20.9773 34.8636ZM39.25 36.3977C39.8023 36.8119 40.5858 36.7 41 36.1477C41.4142 35.5954 41.3023 34.8119 40.75 34.3977L40 35.3977L39.25 36.3977ZM34.6136 29.7955C34.0614 29.3812 33.2779 29.4932 32.8636 30.0455C32.4494 30.5977 32.5614 31.3812 33.1136 31.7955L33.8636 30.7955L34.6136 29.7955ZM35.1591 39.4659C35.7114 39.8801 36.4949 39.7682 36.9091 39.2159C37.3233 38.6636 37.2114 37.8801 36.6591 37.4659L35.9091 38.4659L35.1591 39.4659ZM30.5227 32.8636C29.9704 32.4494 29.1869 32.5614 28.7727 33.1136C28.3585 33.6659 28.4704 34.4494 29.0227 34.8636L29.7727 33.8636L30.5227 32.8636ZM40.4091 14.0682C40.9614 13.654 41.0733 12.8705 40.6591 12.3182C40.2449 11.7659 39.4614 11.654 38.9091 12.0682L39.6591 13.0682L40.4091 14.0682ZM32.7727 16.6705C32.2204 17.0847 32.1085 17.8682 32.5227 18.4205C32.9369 18.9727 33.7204 19.0847 34.2727 18.6705L33.5227 17.6705L32.7727 16.6705ZM36.3182 11C36.8705 10.5858 36.9824 9.80228 36.5682 9.25C36.154 8.69772 35.3705 8.58579 34.8182 9L35.5682 10L36.3182 11ZM28.6818 13.6023C28.1295 14.0165 28.0176 14.8 28.4318 15.3523C28.846 15.9046 29.6295 16.0165 30.1818 15.6023L29.4318 14.6023L28.6818 13.6023ZM11.4318 12.0682C10.8795 11.654 10.096 11.7659 9.68182 12.3182C9.2676 12.8705 9.37953 13.654 9.93182 14.0682L10.6818 13.0682L11.4318 12.0682ZM16.0682 18.6705C16.6205 19.0847 17.404 18.9727 17.8182 18.4205C18.2324 17.8682 18.1205 17.0847 17.5682 16.6705L16.8182 17.6705L16.0682 18.6705ZM15.5227 9C14.9704 8.58579 14.1869 8.69772 13.7727 9.25C13.3585 9.80228 13.4704 10.5858 14.0227 11L14.7727 10L15.5227 9ZM20.1591 15.6023C20.7114 16.0165 21.4949 15.9046 21.9091 15.3523C22.3233 14.8 22.2114 14.0165 21.6591 13.6023L20.9091 14.6023L20.1591 15.6023ZM25 40L25.7398 38.9924L12.2738 29.106L11.5341 30.1136L10.7943 31.1212L24.2602 41.0076L25 40ZM38.2955 30.1136L37.5496 29.1106L24.2541 38.9969L25 40L25.7459 41.0031L39.0413 31.1167L38.2955 30.1136ZM25 31.3068L25.7398 30.2992L12.2738 20.4129L11.5341 21.4205L10.7943 22.4281L24.2602 32.3144L25 31.3068ZM11.5341 21.4205L12.257 22.4402L25.7229 12.8948L25 11.875L24.2771 10.8552L10.8112 20.4007L11.5341 21.4205ZM25 11.875L24.271 12.8904L37.5664 22.4359L38.2955 21.4205L39.0245 20.405L25.729 10.8596L25 11.875ZM38.2955 21.4205L37.5496 20.4174L24.2541 30.3037L25 31.3068L25.7459 32.3099L39.0413 22.4235L38.2955 21.4205ZM38.2955 30.1136H39.5455V21.4205H38.2955H37.0455V30.1136H38.2955ZM25 31.3068H23.75V40H25H26.25V31.3068H25ZM11.5341 30.1136H12.7841V21.4205H11.5341H10.2841V30.1136H11.5341ZM10 35.3977L10.75 36.3977L16.8864 31.7955L16.1364 30.7955L15.3864 29.7955L9.25 34.3977L10 35.3977ZM14.0909 38.4659L14.8409 39.4659L20.9773 34.8636L20.2273 33.8636L19.4773 32.8636L13.3409 37.4659L14.0909 38.4659ZM40 35.3977L40.75 34.3977L34.6136 29.7955L33.8636 30.7955L33.1136 31.7955L39.25 36.3977L40 35.3977ZM35.9091 38.4659L36.6591 37.4659L30.5227 32.8636L29.7727 33.8636L29.0227 34.8636L35.1591 39.4659L35.9091 38.4659ZM39.6591 13.0682L38.9091 12.0682L32.7727 16.6705L33.5227 17.6705L34.2727 18.6705L40.4091 14.0682L39.6591 13.0682ZM35.5682 10L34.8182 9L28.6818 13.6023L29.4318 14.6023L30.1818 15.6023L36.3182 11L35.5682 10ZM10.6818 13.0682L9.93182 14.0682L16.0682 18.6705L16.8182 17.6705L17.5682 16.6705L11.4318 12.0682L10.6818 13.0682ZM14.7727 10L14.0227 11L20.1591 15.6023L20.9091 14.6023L21.6591 13.6023L15.5227 9L14.7727 10Z" fill="#0A0A0A"/>
</svg>
