<svg width="50" height="50" viewBox="0 0 50 50" fill="none" xmlns="http://www.w3.org/2000/svg">
<rect width="50" height="50" rx="12" fill="#FAFAFA"/>
<path d="M12.8638 9L16.0444 21.2647H16.1728L19.3535 9H21.2172L17.1047 24.0588H15.1126L11 9H12.8638Z" fill="#0A0A0A"/>
<path d="M21.2962 24.0588V9H25.3697C26.2588 9 26.9954 9.21324 27.5794 9.63971C28.1635 10.0662 28.6006 10.6495 28.8908 11.3897C29.1809 12.125 29.326 12.9534 29.326 13.875C29.326 14.8015 29.1791 15.6348 28.8852 16.375C28.595 17.1103 28.156 17.6936 27.5683 18.125C26.9842 18.5515 26.2495 18.7647 25.3641 18.7647H22.5629V16.8382H25.2079C25.7696 16.8382 26.2253 16.7108 26.575 16.4559C26.9247 16.1961 27.1814 15.8431 27.3451 15.3971C27.5087 14.951 27.5906 14.4436 27.5906 13.875C27.5906 13.3064 27.5087 12.8015 27.3451 12.3603C27.1814 11.9191 26.9228 11.5735 26.5694 11.3235C26.2197 11.0735 25.7584 10.9485 25.1855 10.9485H23.0204V24.0588H21.2962Z" fill="#0A0A0A"/>
<path d="M39 9V24.0588H37.4152L31.6063 13.0147H31.5003V24.0588H29.776V9H31.372L37.1865 20.0588H37.2925V9H39Z" fill="#0A0A0A"/>
<path d="M11.7121 38.0588V36.2206L16.6505 25.9412H17.7498V28.6471H17.0523L13.5201 36.0147V36.1324H20.2888V38.0588H11.7121ZM17.1304 41V37.5L17.1416 36.6618V25.9412H18.7766V41H17.1304Z" fill="#0A0A0A"/>
<path d="M20.2548 27.8971V25.9412H29.0993V27.8971H25.5336V41H23.8149V27.8971H20.2548Z" fill="#0A0A0A"/>
<path d="M30.4812 25.9412L33.6619 38.2059H33.7902L36.9709 25.9412H38.8347L34.7221 41H32.73L28.6174 25.9412H30.4812Z" fill="#0A0A0A"/>
</svg>
