<svg width="50" height="50" viewBox="0 0 50 50" fill="none" xmlns="http://www.w3.org/2000/svg">
<path d="M30.9988 13.4144C27.2973 12.0435 23.5958 11.9064 19.0716 13.4144C14.1362 10.6726 10.846 4.36632 7.967 5.05171C5.08802 5.7371 5.91058 16.8418 5.91058 24.2448C4.26545 26.4384 3.64225 29.205 4.12911 31.7851C7.69353 48.9219 40.8711 49.8816 45.8057 31.7851C46.6656 28.6319 44.8461 25.0674 44.1599 24.2448C44.1599 16.7047 44.9825 5.20727 42.2406 5.05168C38.539 4.84163 35.523 10.8096 30.9988 13.4144Z" stroke="#FAFAFA" stroke-width="2.5"/>
<path d="M27.9837 34.1749C27.9836 33.078 21.5403 33.0711 21.5403 34.1749C21.5403 35.8199 24.6933 37.328 24.6933 37.328C24.6933 37.328 27.9838 35.8822 27.9837 34.1749Z" fill="#FAFAFA"/>
<path d="M17.8383 25.5362C16.6044 24.5766 13.3656 23.754 12.0803 25.8105C10.9382 27.6378 12.4017 29.8157 14.2738 30.8829C16.1459 31.95 20.0317 31.2941 20.0317 29.649C20.0317 28.004 19.0721 26.4957 17.8383 25.5362Z" fill="#FAFAFA"/>
<path d="M31.8219 25.4405C33.0557 24.4809 36.2945 23.6583 37.5799 25.7148C38.722 27.5421 37.2584 29.72 35.3863 30.7872C33.5142 31.8543 29.6285 31.1984 29.6285 29.5533C29.6285 27.9083 30.588 26.4 31.8219 25.4405Z" fill="#FAFAFA"/>
</svg>
