<svg width="50" height="50" viewBox="0 0 50 50" fill="none" xmlns="http://www.w3.org/2000/svg">
<path fill-rule="evenodd" clip-rule="evenodd" d="M20.4659 7.13501C17.2448 7.59207 12.3696 9.15216 11.7579 9.92164L11.5063 10.2381V12.2215C11.5063 13.3124 11.5431 14.2049 11.5879 14.2049C11.6329 14.2049 12.3318 13.8132 13.1411 13.3344C14.9399 12.2702 15.7345 11.9159 17.089 11.5737C24.462 9.71111 33.1869 12.276 37.429 17.5531L38.1607 18.4633L38.234 18.1745C38.2743 18.0156 38.29 16.5548 38.269 14.9281L38.2307 11.9704L37.8516 11.5706C37.313 11.0023 35.3963 9.77362 34.0609 9.14066C32.4826 8.39243 30.562 7.75384 28.7627 7.37879L27.2377 7.061L24.4579 7.01199C22.5256 6.97799 21.3084 7.01549 20.4659 7.13501ZM7.23546 13.1088C4.57629 15.7457 3.10082 19.3414 2.64973 24.2841L2.5 25.9247L2.65137 27.5346C2.97851 31.0149 3.91026 33.7949 5.57501 36.2574C6.26214 37.2738 7.94925 39.0833 8.20992 39.0833H8.36446L8.3244 36.2373L8.28422 33.3913L7.49462 31.8304C6.99955 30.8518 6.58081 29.8033 6.37219 29.0194L6.03937 27.7692L6.03634 25.894L6.03318 24.0187L6.24533 23.0917C6.57677 21.6429 7.13324 20.1174 7.76654 18.9213L8.3474 17.8242L8.33855 15.2332C8.33363 13.8081 8.28978 12.5425 8.24113 12.4207L8.15268 12.1993L7.23546 13.1088ZM41.4772 19.8408L41.516 24.5188L42.1148 26.0552C42.4442 26.9004 42.8326 28.1662 42.9779 28.8681L43.2423 30.1446L43.253 32.0823L43.2639 34.0201L42.9919 34.8327C42.8425 35.2796 42.6198 35.7908 42.4971 35.9687C42.3744 36.1466 42.0894 36.5656 41.8635 36.8996L41.4528 37.5071V39.9204V42.3337L41.6739 42.3322C42.0919 42.3295 43.1595 41.9958 43.8315 41.6581C45.706 40.7159 47.0259 38.1604 47.4018 34.7457C47.6047 32.9024 47.4806 29.4297 47.1449 27.5543C46.6707 24.906 45.827 22.3484 44.6899 20.1123C43.684 18.1342 42.1786 15.7703 41.6466 15.3335L41.4385 15.1626L41.4772 19.8408ZM19.2038 19.1997C15.9086 19.7921 14.0094 21.0308 12.8171 23.3652C11.8769 25.2062 11.5924 27.9455 12.1286 29.9945C12.8514 32.7569 14.5969 34.4479 17.5004 35.1985C19.803 35.7937 22.7251 35.28 24.1226 34.0345C25.0651 33.1943 25.3991 31.0117 24.9633 28.5392C24.5232 26.0425 23.3646 24.7603 21.1613 24.3314L20.4038 24.184L19.6893 24.3146C17.8235 24.6559 16.5745 25.9495 16.5175 27.5996L16.4974 28.18L16.7381 28.4434C17.2528 29.0066 17.8013 28.7286 18.6457 27.4764C19.6633 25.9676 20.7734 25.8053 21.8419 27.0094C22.4546 27.6997 22.6554 28.7145 22.3536 29.5946C22.1168 30.285 21.3955 31.2753 20.8636 31.64L20.3686 31.9794L19.6021 32.0482L18.8357 32.117L18.0239 31.7216C17.0975 31.2703 16.1217 30.2997 15.658 29.3677L15.3602 28.7694V27.6442V26.5191L15.7087 25.783C16.3568 24.4139 18.1796 22.9581 19.8458 22.4785C21.2868 22.0638 22.5775 22.2116 24.142 22.9703L25.216 23.4913L26.2923 24.5675C27.4456 25.7207 28.1042 26.7807 28.515 28.1443C28.8151 29.14 28.8144 31.1022 28.5135 32.2073C27.5519 35.7395 24.1067 38.8676 20.3851 39.5876C19.3766 39.7828 17.0251 39.6801 15.9288 39.393C14.8771 39.1177 13.5102 38.499 12.5649 37.8704C12.1564 37.5988 11.7512 37.3353 11.6643 37.2849L11.5063 37.1933V39.148V41.1028L11.8624 41.4551C12.0997 41.6899 12.6174 41.9338 13.4148 42.1865C15.3808 42.8096 16.6636 43.0067 18.7086 42.9998L20.5408 42.9937L21.9612 42.6708C27.4023 41.434 31.0878 37.8402 32.1147 32.7699C32.3353 31.6808 32.3388 28.7849 32.1209 27.7692C31.56 25.1562 30.5007 23.225 28.7134 21.5567C27.6808 20.5931 26.2673 19.8468 24.7106 19.4432L23.6997 19.1813L21.7412 19.1384C20.664 19.1149 19.5222 19.1425 19.2038 19.1997ZM33.0351 38.2284C32.8879 38.2991 32.6403 38.5803 32.485 38.8536L32.2027 39.3506L32.248 40.3336L32.2931 41.3167L32.5541 41.6689C32.6978 41.8627 33.0103 42.1196 33.2486 42.2397L33.6819 42.4584L35.7036 42.4569C36.8155 42.456 37.8532 42.4214 38.0096 42.38L38.2939 42.3046V40.1938V38.0831L35.7983 38.0917C34.3686 38.0964 33.1885 38.1549 33.0351 38.2284Z" fill="#FAFAFA"/>
</svg>
