<svg width="50" height="50" viewBox="0 0 50 50" fill="none" xmlns="http://www.w3.org/2000/svg">
<path fill-rule="evenodd" clip-rule="evenodd" d="M40.3188 7.90106C37.7445 9.49672 35.5377 10.9133 35.4148 11.0492L35.1913 11.2963L35.1634 13.6341C35.1322 16.2532 35.172 16.4895 35.6999 16.8221C35.9871 17.003 36.1385 17.0085 40.8233 17.0083C46.1369 17.008 45.8591 17.0368 46.3147 16.4383C46.4972 16.1985 46.5 16.1164 46.5 10.9875V5.78023L46.2365 5.48203C45.9446 5.15178 45.6345 5 45.2522 5C45.0794 5 43.5173 5.91861 40.3188 7.90106ZM24.4549 17.269C20.8634 19.5008 19.6772 20.2819 19.5244 20.5159L19.3233 20.8241V28.3718V35.9195L19.1195 36.2321C18.7953 36.7291 18.6226 36.7754 17.0884 36.7766C15.8549 36.7774 15.6703 36.7571 15.4068 36.5911C14.8486 36.2395 14.8535 36.2914 14.8528 30.7073C14.8523 25.8605 14.8449 25.6352 14.6795 25.3757C14.284 24.7557 13.6781 24.699 12.8059 25.2003C12.4815 25.3867 10.9088 26.3582 9.31081 27.3592C7.71284 28.3603 5.95976 29.4522 5.41515 29.7857C4.87055 30.1191 4.21687 30.5619 3.96245 30.7697L3.5 31.1475L3.50456 37.173C3.50715 40.4871 3.53996 43.485 3.5776 43.8352C3.63731 44.391 3.68237 44.5054 3.93197 44.7359L4.21804 45H9.1886H14.1593L14.5064 44.6414L14.8534 44.2826L14.8536 42.2164C14.8537 40.4342 14.8752 40.1056 15.0101 39.8268C15.2737 39.2814 15.5982 39.1804 17.0884 39.1804C19.2745 39.1804 19.3229 39.2441 19.3231 42.1177C19.3233 44.2491 19.3563 44.4258 19.8252 44.8071C20.0593 44.9973 20.1294 45 24.9271 45C30.2954 45 30.1492 45.0152 30.5015 44.4181C30.6727 44.1281 30.6761 43.8413 30.6761 29.6651C30.6761 15.3271 30.6746 15.2053 30.4956 14.9021C30.3012 14.5724 29.8548 14.3302 29.4417 14.3302C29.2626 14.3302 27.7455 15.2244 24.4549 17.269ZM36.0592 19.321C35.7201 19.3997 35.45 19.627 35.2715 19.9836C35.0962 20.3338 35.086 43.9932 35.2609 44.3505C35.3224 44.476 35.5088 44.6735 35.6751 44.7893L35.9776 45H40.7963C46.0666 45 45.93 45.0135 46.3141 44.4559L46.5 44.1862V32.0939V20.0016L46.1948 19.6959C45.9647 19.4655 45.794 19.3821 45.502 19.3572C44.6882 19.2879 36.3392 19.256 36.0592 19.321Z" fill="#FAFAFA"/>
</svg>
