<svg width="50" height="50" viewBox="0 0 50 50" fill="none" xmlns="http://www.w3.org/2000/svg">
<path d="M3.41174 29.0078C4.58506 33.8287 7.33566 38.1192 11.2266 41.1979C15.1175 44.2766 19.9256 45.9668 24.8871 46C29.8486 46.0333 34.6789 44.4077 38.6107 41.3814C42.5426 38.3552 45.3504 34.1019 46.5883 29.2972" stroke="#FAFAFA" stroke-width="3" stroke-linecap="round"/>
<path d="M10.6001 35.1992C13.6001 38.7992 18.3755 41.4631 23.8001 39.9992C29.2247 38.5353 33.4 34.5992 38.8 36.9992" stroke="#FAFAFA" stroke-width="2" stroke-linecap="round"/>
<path d="M10.6001 29.8008C13.6001 33.4008 18.3755 36.0646 23.8001 34.6008C29.2247 33.1369 33.4 29.2008 38.8 31.6008" stroke="#FAFAFA" stroke-width="2" stroke-linecap="round"/>
<path d="M25.6002 30.4004C21.4002 32.2004 23.5277 36.8942 24.9039 38.2004C26.8004 40.0004 25.504 44.2004 23.1039 45.4004" stroke="#FAFAFA" stroke-width="2" stroke-linecap="round"/>
<path d="M17.6424 24.1575L24.517 6.34402C24.8426 5.50028 26.0319 5.48783 26.3751 6.32455L33.6771 24.1258C33.8754 24.6092 33.6681 25.1639 33.2012 25.3987L25.885 29.0784C25.5944 29.2245 25.251 29.2203 24.9642 29.0669L18.1039 25.3995C17.6585 25.1614 17.4606 24.6286 17.6424 24.1575Z" fill="#FAFAFA"/>
</svg>
