<svg width="50" height="50" viewBox="0 0 50 50" fill="none" xmlns="http://www.w3.org/2000/svg">
<rect x="1" y="1" width="48" height="48" rx="11" stroke="white" stroke-width="2"/>
<path d="M5.828 31V19.8H8.42V31H5.828ZM11.078 31V19.8H13.222L19.83 27.864H18.79V19.8H21.35V31H19.222L12.598 22.936H13.638V31H11.078ZM29.3599 31.192C28.4959 31.192 27.6905 31.0533 26.9439 30.776C26.2079 30.488 25.5679 30.0827 25.0239 29.56C24.4799 29.0373 24.0532 28.424 23.7439 27.72C23.4452 27.016 23.2959 26.2427 23.2959 25.4C23.2959 24.5573 23.4452 23.784 23.7439 23.08C24.0532 22.376 24.4799 21.7627 25.0239 21.24C25.5785 20.7173 26.2239 20.3173 26.9599 20.04C27.6959 19.752 28.5012 19.608 29.3759 19.608C30.3465 19.608 31.2212 19.7787 31.9999 20.12C32.7892 20.4507 33.4505 20.9413 33.9839 21.592L32.3199 23.128C31.9359 22.6907 31.5092 22.3653 31.0399 22.152C30.5705 21.928 30.0585 21.816 29.5039 21.816C28.9812 21.816 28.5012 21.9013 28.0639 22.072C27.6265 22.2427 27.2479 22.488 26.9279 22.808C26.6079 23.128 26.3572 23.5067 26.1759 23.944C26.0052 24.3813 25.9199 24.8667 25.9199 25.4C25.9199 25.9333 26.0052 26.4187 26.1759 26.856C26.3572 27.2933 26.6079 27.672 26.9279 27.992C27.2479 28.312 27.6265 28.5573 28.0639 28.728C28.5012 28.8987 28.9812 28.984 29.5039 28.984C30.0585 28.984 30.5705 28.8773 31.0399 28.664C31.5092 28.44 31.9359 28.104 32.3199 27.656L33.9839 29.192C33.4505 29.8427 32.7892 30.3387 31.9999 30.68C31.2212 31.0213 30.3412 31.192 29.3599 31.192ZM38.4245 31V26.424L39.0165 27.992L34.0885 19.8H36.8405L40.6165 26.088H39.0325L42.8245 19.8H45.3685L40.4405 27.992L41.0165 26.424V31H38.4245Z" fill="white"/>
</svg>
