<svg width="50" height="50" viewBox="0 0 50 50" fill="none" xmlns="http://www.w3.org/2000/svg">
<path d="M20.1587 31.9985C20.1587 31.9985 11.6426 31.9986 11.176 31.9985C10.7093 31.9984 4.64307 31.9986 4.64307 25.1157C4.64307 18.2329 10.3594 18 11.176 18C11.9926 18 16.7756 18 21.9086 18C27.0416 18 27.275 25.1159 27.275 25.1159" stroke="#FAFAFA" stroke-width="3" stroke-linecap="round"/>
<path d="M29.8413 18.0015C29.8413 18.0015 38.3574 18.0014 38.824 18.0015C39.2907 18.0016 45.3569 18.0014 45.3569 24.8843C45.3569 31.7671 39.6406 32 38.824 32C38.0074 32 33.2244 32 28.0914 32C22.9584 32 22.725 24.8841 22.725 24.8841" stroke="#FAFAFA" stroke-width="3" stroke-linecap="round"/>
<path d="M12.6929 24.8848H17.2426" stroke="#FAFAFA" stroke-width="2.5" stroke-linecap="round"/>
<path d="M32.7581 24.8848H37.3078" stroke="#FAFAFA" stroke-width="2.5" stroke-linecap="round"/>
</svg>
