<svg width="50" height="50" viewBox="0 0 50 50" fill="none" xmlns="http://www.w3.org/2000/svg">
<rect width="50" height="50" rx="12" fill="black"/>
<path d="M10.3682 10.75C11.7942 10.0767 13.4021 9.89043 14.9443 10.2197C14.9616 10.2234 14.9796 10.2257 14.9971 10.2285C18.2947 10.7517 20.3674 14.3097 19.5479 17.6367L19.4678 17.957C19.0537 19.4467 18.1031 20.7352 16.7939 21.5713C15.5206 22.3844 14.0016 22.7079 12.5156 22.4941L11.7266 21.0859C11.5443 20.7605 11.1961 20.5637 10.8232 20.5752C10.4505 20.5868 10.1149 20.8046 9.95312 21.1406V21.1396C9.953 21.1399 9.95285 21.1412 9.95215 21.1426L9.91016 21.2266C9.87879 21.2871 9.83147 21.3749 9.77246 21.4785C9.65195 21.6901 9.49156 21.9487 9.31543 22.1748C9.25302 22.2549 9.19409 22.3198 9.14355 22.374C9.09824 22.2799 9.04925 22.1679 9.00195 22.0361C8.86592 21.657 8.75162 21.1929 8.66016 20.7236C8.56967 20.2594 8.50582 19.8152 8.46484 19.4854C8.44445 19.3212 8.43031 19.1869 8.4209 19.0947C8.41623 19.049 8.41233 19.0136 8.41016 18.9902C8.40907 18.9786 8.40868 18.9693 8.4082 18.9639L8.40723 18.958C8.3678 18.4932 8.01263 18.1169 7.55078 18.0518C7.0889 17.9867 6.64292 18.2498 6.47656 18.6855L6.47559 18.6895C6.47397 18.6936 6.4706 18.7004 6.4668 18.71C6.45916 18.7292 6.44737 18.7589 6.43164 18.7969C6.40008 18.8731 6.35382 18.9818 6.2959 19.1074C6.23988 19.2289 6.17554 19.3589 6.10742 19.4873C5.99115 18.8836 5.96427 18.111 6.05762 17.2598C6.19022 16.051 6.54244 14.8442 7.0332 13.9795C7.03938 13.9686 7.04502 13.9574 7.05078 13.9463C7.77645 12.5462 8.94221 11.4234 10.3682 10.75Z" fill="black" stroke="white" stroke-width="2" stroke-linejoin="round"/>
<path d="M35.0543 10.2197C36.5983 9.89172 38.2071 10.0806 39.6334 10.7568C41.0598 11.4332 42.2246 12.5598 42.9479 13.9629C42.954 13.9747 42.9608 13.9865 42.9674 13.998C43.4589 14.864 43.8106 16.0628 43.943 17.2656C44.0361 18.1122 44.009 18.8862 43.8912 19.499C43.8247 19.3711 43.7615 19.242 43.7067 19.1211C43.6486 18.9931 43.6016 18.8824 43.5699 18.8047C43.5542 18.766 43.5425 18.7355 43.5348 18.7158C43.5312 18.7065 43.5286 18.6996 43.527 18.6953L43.525 18.6904C43.3606 18.2531 42.9147 17.9878 42.4518 18.0518C42.0466 18.1078 41.7228 18.4031 41.6217 18.7881L41.5924 18.958C41.5923 18.959 41.5926 18.9614 41.5924 18.9639C41.5919 18.9693 41.5906 18.9786 41.5895 18.9902C41.5873 19.0136 41.5844 19.0489 41.5797 19.0947C41.5703 19.1869 41.5552 19.3211 41.5348 19.4854C41.4938 19.8152 41.43 20.2594 41.3395 20.7236C41.248 21.1927 41.1346 21.6571 40.9987 22.0361C40.9512 22.1683 40.9015 22.2807 40.8561 22.375C40.8055 22.3208 40.7477 22.255 40.6852 22.1748C40.5089 21.9486 40.3477 21.6902 40.2272 21.4785C40.1682 21.375 40.1218 21.2871 40.0905 21.2266C40.0748 21.1964 40.0626 21.1729 40.0553 21.1582L40.0465 21.1406H40.0455C39.8837 20.8051 39.5497 20.5869 39.1774 20.5752C38.8044 20.5636 38.4554 20.7604 38.2731 21.0859L37.485 22.4932C35.999 22.7071 34.4802 22.3853 33.2067 21.5723C31.8101 20.6804 30.8213 19.2727 30.4567 17.6562L30.4528 17.6377L30.3844 17.3252C29.7634 14.0909 31.8086 10.7363 35.0035 10.2295C35.0206 10.2268 35.0375 10.2233 35.0543 10.2197Z" fill="black" stroke="white" stroke-width="2" stroke-linejoin="round"/>
<path d="M25.0004 12.1816C31.786 12.1818 37.098 17.09 37.098 22.9229V25.8994L37.3197 26.1738C38.1971 27.2621 38.7082 28.5971 38.7836 29.9883L38.7924 30.2676C38.786 34.2775 35.6516 37.5713 31.057 37.5713H30.7924L30.7826 37.5723C29.8594 37.5902 28.9593 37.8591 28.1771 38.3486C27.2262 38.888 26.146 39.1584 25.0531 39.1299L25.0277 39.1289L25.0013 39.1299C24.045 39.1548 23.0984 38.9508 22.2396 38.5381L21.8773 38.3486C21.0952 37.8591 20.1951 37.5902 19.2719 37.5723L19.2621 37.5713H18.9974C14.436 37.5713 11.2639 34.2363 11.2621 30.2588C11.2667 28.7735 11.7682 27.3321 12.6869 26.165L12.9017 25.8926V22.9229C12.9017 17.0899 18.2145 12.1816 25.0004 12.1816Z" fill="black" stroke="white" stroke-width="2"/>
<path d="M28.5615 31.1034C28.5615 34.2095 26.9675 35.0657 25 35.0657C23.0325 35.0657 21.4385 34.2095 21.4385 31.1034C21.4385 27.9974 23.0325 24.9004 25 24.9004C26.9675 24.9004 28.5615 27.9883 28.5615 31.1034Z" fill="white"/>
<path d="M19.2979 40.1102C18.7229 40.7603 18.3042 41.5332 18.0737 42.37C17.8432 43.2067 17.8071 44.085 17.9681 44.9378C18.8391 44.9568 19.7028 44.7753 20.4925 44.4073C21.2822 44.0393 21.9767 43.4947 22.5224 42.8155C23.099 42.1662 23.5194 41.3936 23.7515 40.5569C23.9836 39.7201 24.0211 38.8414 23.8614 37.9879C22.9888 37.9675 22.1233 38.1484 21.3319 38.5164C20.5406 38.8845 19.8446 39.4298 19.2979 40.1102Z" fill="white"/>
<path d="M23.8341 37.9877C22.963 37.9687 22.0993 38.1503 21.3096 38.5183C20.5199 38.8863 19.8254 39.4309 19.2797 40.11C18.9882 40.4585 18.7347 40.8371 18.5237 41.2395C19.5663 42.214 20.8949 42.8272 22.3129 42.9884L22.4769 42.8153C23.0566 42.1676 23.4804 41.3958 23.7157 40.559C23.9509 39.7222 23.9914 38.8426 23.8341 37.9877Z" fill="white"/>
<path d="M30.5928 24.8981C30.5928 25.3015 30.753 25.6885 31.0383 25.9737C31.3236 26.259 31.7105 26.4193 32.1139 26.4193C32.5174 26.4193 32.9043 26.259 33.1895 25.9737C33.4748 25.6885 33.6351 25.3015 33.6351 24.8981C33.6351 24.4947 33.4748 24.1078 33.1895 23.8225C32.9043 23.5372 32.5174 23.377 32.1139 23.377C31.7105 23.377 31.3236 23.5372 31.0383 23.8225C30.753 24.1078 30.5928 24.4947 30.5928 24.8981ZM16.365 24.8981C16.365 25.3015 16.5253 25.6885 16.8105 25.9737C17.0958 26.259 17.4827 26.4193 17.8861 26.4193C18.2896 26.4193 18.6765 26.259 18.9618 25.9737C19.247 25.6885 19.4073 25.3015 19.4073 24.8981C19.4073 24.4947 19.247 24.1078 18.9618 23.8225C18.6765 23.5372 18.2896 23.377 17.8861 23.377C17.4827 23.377 17.0958 23.5372 16.8105 23.8225C16.5253 24.1078 16.365 24.4947 16.365 24.8981Z" fill="white"/>
</svg>
