<svg width="50" height="50" viewBox="0 0 50 50" fill="none" xmlns="http://www.w3.org/2000/svg">
<path d="M11.2 23.031C10.7673 23.0066 10.3345 22.9485 9.9055 22.856L8.7323 20.7609C8.7323 20.7609 7.27628 23.7883 6.19735 22.856C5.11843 21.9237 4.77275 17.8487 4.77275 17.8487C4.77275 17.8487 3.33768 21.6094 2.45778 19.6295C1.57788 17.6497 2.01783 13.7842 3.33768 11.4586C4.28822 9.62462 5.81478 8.15356 7.68268 7.27161C9.55058 6.38966 11.6564 6.14563 13.6765 6.57703C16.2459 6.98461 18.2224 8.69783 19.2643 10.8997" stroke="white" stroke-width="2" stroke-linejoin="round"/>
<path d="M38.8 23.0309C39.2328 23.0065 39.6656 22.9484 40.0945 22.8559L41.2677 20.7608C41.2677 20.7608 42.7238 23.7882 43.8027 22.8559C44.8816 21.9236 45.2273 17.8486 45.2273 17.8486C45.2273 17.8486 46.6624 21.6721 47.5423 19.6504C48.4222 17.6286 47.9822 13.805 46.6624 11.4795C45.7151 9.64159 44.1899 8.16611 42.3217 7.28024C40.4535 6.39437 38.346 6.14724 36.3235 6.57691C33.7542 6.98447 31.7777 8.69762 30.7358 10.8994" stroke="white" stroke-width="2" stroke-linejoin="round"/>
<path d="M24.9999 9.80664C32.8705 9.80664 39.0633 15.5034 39.0634 22.3096V25.6797L39.285 25.9541C40.3139 27.2304 40.9125 28.7962 41.0009 30.4277L41.0116 30.7549C41.0051 35.4536 37.3294 39.3066 31.9657 39.3066H31.6532C30.6166 39.3268 29.6061 39.63 28.7284 40.1807C27.6111 40.8145 26.3417 41.1321 25.0575 41.0986L25.0311 41.0977L25.0057 41.0986C23.802 41.13 22.6114 40.8528 21.5468 40.2959L21.3348 40.1807C20.4572 39.63 19.4467 39.3268 18.41 39.3066H18.0975C12.7721 39.3066 9.05308 35.4064 9.05164 30.7451C9.05716 29.0035 9.6453 27.3138 10.7225 25.9453L10.9374 25.6729V22.3096C10.9374 15.5035 17.1294 9.80679 24.9999 9.80664Z" stroke="white" stroke-width="2"/>
<path d="M29.0957 31.7217C29.0957 35.2939 27.2626 36.2786 25 36.2786C22.7374 36.2786 20.9043 35.2939 20.9043 31.7217C20.9043 28.1496 22.7374 24.5879 25 24.5879C27.2626 24.5879 29.0957 28.1391 29.0957 31.7217Z" fill="white"/>
<path d="M18.4429 42.0773C17.7816 42.825 17.3001 43.7139 17.035 44.6762C16.77 45.6384 16.7284 46.6486 16.9135 47.6294C17.9152 47.6512 18.9085 47.4424 19.8166 47.0192C20.7248 46.596 21.5235 45.9696 22.151 45.1886C22.8141 44.4419 23.2976 43.5534 23.5645 42.5911C23.8314 41.6287 23.8746 40.6181 23.6909 39.6365C22.6874 39.6131 21.6921 39.8211 20.782 40.2444C19.8719 40.6677 19.0715 41.2949 18.4429 42.0773Z" fill="white"/>
<path d="M23.6594 39.6363C22.6577 39.6145 21.6645 39.8233 20.7563 40.2465C19.8482 40.6697 19.0495 41.2961 18.4219 42.0771C18.0867 42.4779 17.7952 42.9133 17.5525 43.3761C18.7516 44.4968 20.2794 45.202 21.9101 45.3874L22.0986 45.1883C22.7654 44.4435 23.2527 43.5558 23.5233 42.5935C23.7938 41.6311 23.8404 40.6195 23.6594 39.6363Z" fill="white"/>
<path d="M31.4318 24.5795C31.4318 25.0435 31.6161 25.4884 31.9441 25.8165C32.2722 26.1446 32.7172 26.3289 33.1811 26.3289C33.6451 26.3289 34.09 26.1446 34.4181 25.8165C34.7461 25.4884 34.9304 25.0435 34.9304 24.5795C34.9304 24.1155 34.7461 23.6705 34.4181 23.3425C34.09 23.0144 33.6451 22.8301 33.1811 22.8301C32.7172 22.8301 32.2722 23.0144 31.9441 23.3425C31.6161 23.6705 31.4318 24.1155 31.4318 24.5795ZM15.0698 24.5795C15.0698 25.0435 15.2541 25.4884 15.5822 25.8165C15.9103 26.1446 16.3552 26.3289 16.8191 26.3289C17.2831 26.3289 17.728 26.1446 18.0561 25.8165C18.3842 25.4884 18.5685 25.0435 18.5685 24.5795C18.5685 24.1155 18.3842 23.6705 18.0561 23.3425C17.728 23.0144 17.2831 22.8301 16.8191 22.8301C16.3552 22.8301 15.9103 23.0144 15.5822 23.3425C15.2541 23.6705 15.0698 24.1155 15.0698 24.5795Z" fill="white"/>
</svg>
