<svg width="50" height="50" viewBox="0 0 50 50" fill="none" xmlns="http://www.w3.org/2000/svg">
<path d="M9.92017 18.2865C9.92017 28.4087 23.9672 39.5637 25.0001 38.944C26.0329 39.5637 40.08 28.4087 40.08 18.2865C40.08 8.99066 34.0894 3 25.0001 3C15.9108 3 9.92017 8.99066 9.92017 18.2865Z" fill="#FAFAFA"/>
<path d="M25.9465 46.9997H23.6407C23.203 46.9997 22.8162 46.7151 22.686 46.2973L21.8928 43.7526C21.6922 43.1089 22.1732 42.4551 22.8475 42.4551H26.7396C27.414 42.4551 27.895 43.1089 27.6943 43.7526L26.9012 46.2973C26.771 46.7151 26.3842 46.9997 25.9465 46.9997Z" fill="#FAFAFA"/>
</svg>
