<svg width="50" height="50" viewBox="0 0 50 50" fill="none" xmlns="http://www.w3.org/2000/svg">
<path d="M7.56292 44.0653C6.31812 42.8205 6.31812 40.8023 7.56292 39.5575L37.8888 9.23163C39.1336 7.98683 41.1518 7.98683 42.3966 9.23164C43.6414 10.4764 43.6414 12.4947 42.3966 13.7395L12.0708 44.0653C10.8259 45.3101 8.80773 45.3101 7.56292 44.0653Z" fill="#FAFAFA"/>
<path d="M4.3451 16.664C3.1003 15.4192 3.1003 13.4009 4.3451 12.1561L10.5676 5.9336C11.8124 4.6888 13.8307 4.6888 15.0755 5.9336C16.3203 7.1784 16.3203 9.19663 15.0755 10.4414L8.85293 16.664C7.60813 17.9088 5.5899 17.9088 4.3451 16.664Z" fill="#FAFAFA"/>
<path d="M45.6548 16.664C46.8996 15.4192 46.8996 13.401 45.6548 12.1562L39.4322 5.93365C38.1874 4.68885 36.1692 4.68885 34.9244 5.93365C33.6796 7.17845 33.6796 9.19667 34.9244 10.4415L41.147 16.664C42.3918 17.9088 44.41 17.9088 45.6548 16.664Z" fill="#FAFAFA"/>
<path d="M42.3966 44.0653C43.6414 42.8205 43.6414 40.8023 42.3966 39.5575L12.0708 9.23163C10.826 7.98683 8.80773 7.98683 7.56293 9.23164C6.31812 10.4764 6.31812 12.4947 7.56293 13.7395L37.8888 44.0653C39.1336 45.3101 41.1518 45.3101 42.3966 44.0653Z" fill="#FAFAFA"/>
<path d="M28.0017 26.4171C28.0017 28.1695 26.5811 29.5901 24.8288 29.5901C23.0764 29.5901 21.6558 28.1695 21.6558 26.4171C21.6558 24.6647 23.0764 23.2441 24.8288 23.2441C26.5811 23.2441 28.0017 24.6647 28.0017 26.4171Z" fill="#0A0A0A"/>
</svg>
