<svg width="50" height="50" viewBox="0 0 50 50" fill="none" xmlns="http://www.w3.org/2000/svg">
<path d="M19.83 35.0506C19.83 35.0506 7.76654 18.331 20.4567 3C22.0232 7.59638 19.8203 12.4625 19.9865 14.4972C20.2747 18.0243 26.2016 16.8971 23.59 31.9836C24.6866 31.9794 24.8431 31.9794 25.9399 31.9836C25.4699 27.8389 25.0238 22.7821 28.7599 19.2512C33.3032 14.9573 31.11 8.21398 31.11 8.21398C31.11 8.21398 43.4866 15.264 29.8567 35.0506C32.5249 37.3467 34.0916 41.4872 34.0916 41.4872C34.0916 41.4872 33.1516 36.8867 31.11 35.0506C31.3585 33.7338 32.6767 31.9836 32.6767 31.9836C32.6767 31.9836 48.5 34.1263 48.5 39.3445C48.5001 49.7865 1.49682 49.3145 1.5 39.3445C1.50206 32.8995 17.1716 31.9794 17.1716 31.9794C17.1716 31.9794 17.841 33.3158 18.4249 33.973C18.917 34.5268 19.83 35.0506 19.83 35.0506Z" fill="#FAFAFA"/>
</svg>
