<svg width="50" height="50" viewBox="0 0 50 50" fill="none" xmlns="http://www.w3.org/2000/svg">
<path d="M6.81398 3.67832C7.71441 2.7779 9.17429 2.77789 10.0747 3.67832L46.3218 39.9253C47.2222 40.8257 47.2222 42.2856 46.3218 43.186L43.1831 46.3247C42.2827 47.2251 40.8228 47.2251 39.9224 46.3247L3.67532 10.0777C2.77489 9.17728 2.77489 7.7174 3.67532 6.81697L6.81398 3.67832Z" fill="#FAFAFA"/>
<path d="M18.4265 28.4348C17.5261 27.5344 16.0662 27.5344 15.1658 28.4348L3.67532 39.9253C2.77489 40.8257 2.77489 42.2856 3.67532 43.186L6.81398 46.3246C7.71441 47.2251 9.17429 47.2251 10.0747 46.3246L21.5652 34.8342C22.4656 33.9338 22.4656 32.4739 21.5652 31.5735L18.4265 28.4348Z" fill="#FAFAFA"/>
<path d="M43.186 3.67532C42.2856 2.77489 40.8257 2.77489 39.9253 3.67532L28.5589 15.0417C27.6584 15.9421 27.6584 17.402 28.5589 18.3024L31.6975 21.4411C32.598 22.3415 34.0578 22.3415 34.9583 21.4411L46.3247 10.0747C47.2251 9.17428 47.2251 7.7144 46.3247 6.81397L43.186 3.67532Z" fill="#FAFAFA"/>
</svg>
