<svg width="50" height="50" viewBox="0 0 50 50" fill="none" xmlns="http://www.w3.org/2000/svg">
<path d="M24.4948 3.02051C33.172 2.52485 37.945 10.8183 37.7565 20.8945C42.3238 22.5003 51.8349 31.9328 47.3727 39.9775C43.0858 47.7061 35.3051 49.1534 24.9977 43.3711C21.2267 46.1366 8.15345 51.0387 2.81116 40.7939C-1.1406 33.2151 4.13135 24.7049 11.9244 20.8945C11.673 16.4661 13.4331 3.65239 24.4948 3.02051ZM12.6158 27.5371C10.3533 29.0455 6.77107 32.9426 8.21643 37.2793C9.63059 41.5219 15.6954 41.4901 19.4664 39.416C15.6328 35.5193 13.6717 31.2075 12.6158 27.5371ZM37.0651 27.5371C36.2606 33.1181 32.2045 37.7818 30.277 39.416C33.9223 41.2387 39.7858 41.396 41.653 37.2793C43.3898 33.4495 38.1545 28.1028 37.0651 27.5371ZM31.4088 24.584C29.2091 23.725 23.5022 22.5226 18.2731 24.584C18.5456 26.8888 20.0326 32.3148 24.8717 36.1484C27.239 34.263 31.1572 29.2349 31.4088 24.584ZM24.8717 9.43652C21.1637 9.43663 19.0896 13.208 18.0211 18.1729C21.0379 17.293 25.6894 16.7901 31.5973 18.1729C31.5973 15.2819 28.8313 9.43657 24.8717 9.43652Z" fill="#FAFAFA"/>
</svg>
