<svg width="50" height="50" viewBox="0 0 50 50" fill="none" xmlns="http://www.w3.org/2000/svg">
<path d="M25 46L24.2602 47.0076C24.7027 47.3325 25.3054 47.3306 25.7459 47.0031L25 46ZM6.14773 32.1591H4.89773C4.89773 32.557 5.0872 32.9312 5.40797 33.1667L6.14773 32.1591ZM43.6136 32.1591L44.3595 33.1622C44.6767 32.9263 44.8636 32.5543 44.8636 32.1591H43.6136ZM6.14773 19.9886L5.42485 18.9689C5.09421 19.2032 4.89773 19.5834 4.89773 19.9886H6.14773ZM25 6.625L25.729 5.6096L25.0046 5.08952L24.2771 5.60522L25 6.625ZM43.6136 19.9886H44.8636C44.8636 19.586 44.6697 19.208 44.3426 18.9732L43.6136 19.9886ZM3.25 38.5568C2.69772 38.971 2.58579 39.7545 3 40.3068C3.41421 40.8591 4.19772 40.971 4.75 40.5568L4 39.5568L3.25 38.5568ZM13.3409 34.1136C13.8932 33.6994 14.0051 32.9159 13.5909 32.3636C13.1767 31.8114 12.3932 31.6994 11.8409 32.1136L12.5909 33.1136L13.3409 34.1136ZM8.97727 42.8523C8.42499 43.2665 8.31306 44.05 8.72727 44.6023C9.14149 45.1546 9.92499 45.2665 10.4773 44.8523L9.72727 43.8523L8.97727 42.8523ZM19.0682 38.4091C19.6205 37.9949 19.7324 37.2114 19.3182 36.6591C18.904 36.1068 18.1205 35.9949 17.5682 36.4091L18.3182 37.4091L19.0682 38.4091ZM45.25 40.5568C45.8023 40.971 46.5858 40.8591 47 40.3068C47.4142 39.7545 47.3023 38.971 46.75 38.5568L46 39.5568L45.25 40.5568ZM38.1591 32.1136C37.6068 31.6994 36.8233 31.8114 36.4091 32.3636C35.9949 32.9159 36.1068 33.6994 36.6591 34.1136L37.4091 33.1136L38.1591 32.1136ZM39.5227 44.8523C40.075 45.2665 40.8585 45.1546 41.2727 44.6023C41.6869 44.05 41.575 43.2665 41.0227 42.8523L40.2727 43.8523L39.5227 44.8523ZM32.4318 36.4091C31.8795 35.9949 31.096 36.1068 30.6818 36.6591C30.2676 37.2114 30.3795 37.9949 30.9318 38.4091L31.6818 37.4091L32.4318 36.4091ZM46.2727 9.29545C46.825 8.88124 46.9369 8.09774 46.5227 7.54545C46.1085 6.99317 45.325 6.88124 44.7727 7.29545L45.5227 8.29545L46.2727 9.29545ZM36.1818 13.7386C35.6295 14.1528 35.5176 14.9364 35.9318 15.4886C36.346 16.0409 37.1295 16.1528 37.6818 15.7386L36.9318 14.7386L36.1818 13.7386ZM40.5455 5C41.0977 4.58579 41.2097 3.80228 40.7955 3.25C40.3812 2.69772 39.5977 2.58579 39.0455 3L39.7955 4L40.5455 5ZM30.4545 9.44318C29.9023 9.8574 29.7903 10.6409 30.2045 11.1932C30.6188 11.7455 31.4023 11.8574 31.9545 11.4432L31.2045 10.4432L30.4545 9.44318ZM5.70455 7.29545C5.15226 6.88124 4.36876 6.99317 3.95455 7.54545C3.54033 8.09774 3.65226 8.88124 4.20455 9.29545L4.95455 8.29545L5.70455 7.29545ZM12.7955 15.7386C13.3477 16.1528 14.1312 16.0409 14.5455 15.4886C14.9597 14.9364 14.8477 14.1528 14.2955 13.7386L13.5455 14.7386L12.7955 15.7386ZM11.4318 3C10.8795 2.58579 10.096 2.69772 9.68182 3.25C9.2676 3.80228 9.37953 4.58579 9.93182 5L10.6818 4L11.4318 3ZM18.5227 11.4432C19.075 11.8574 19.8585 11.7455 20.2727 11.1932C20.6869 10.6409 20.575 9.8574 20.0227 9.44318L19.2727 10.4432L18.5227 11.4432ZM25 46L25.7398 44.9924L6.88748 31.1515L6.14773 32.1591L5.40797 33.1667L24.2602 47.0076L25 46ZM43.6136 32.1591L42.8678 31.156L24.2541 44.9969L25 46L25.7459 47.0031L44.3595 33.1622L43.6136 32.1591ZM25 33.8295L25.7398 32.8219L6.88748 18.981L6.14773 19.9886L5.40797 20.9962L24.2602 34.8371L25 33.8295ZM6.14773 19.9886L6.87061 21.0084L25.7229 7.64478L25 6.625L24.2771 5.60522L5.42485 18.9689L6.14773 19.9886ZM25 6.625L24.271 7.6404L42.8846 21.004L43.6136 19.9886L44.3426 18.9732L25.729 5.6096L25 6.625ZM43.6136 19.9886L42.8678 18.9856L24.2541 32.8265L25 33.8295L25.7459 34.8326L44.3595 20.9917L43.6136 19.9886ZM43.6136 32.1591H44.8636V19.9886H43.6136H42.3636V32.1591H43.6136ZM25 33.8295H23.75V46H25H26.25V33.8295H25ZM6.14773 32.1591H7.39773V19.9886H6.14773H4.89773V32.1591H6.14773ZM4 39.5568L4.75 40.5568L13.3409 34.1136L12.5909 33.1136L11.8409 32.1136L3.25 38.5568L4 39.5568ZM9.72727 43.8523L10.4773 44.8523L19.0682 38.4091L18.3182 37.4091L17.5682 36.4091L8.97727 42.8523L9.72727 43.8523ZM46 39.5568L46.75 38.5568L38.1591 32.1136L37.4091 33.1136L36.6591 34.1136L45.25 40.5568L46 39.5568ZM40.2727 43.8523L41.0227 42.8523L32.4318 36.4091L31.6818 37.4091L30.9318 38.4091L39.5227 44.8523L40.2727 43.8523ZM45.5227 8.29545L44.7727 7.29545L36.1818 13.7386L36.9318 14.7386L37.6818 15.7386L46.2727 9.29545L45.5227 8.29545ZM39.7955 4L39.0455 3L30.4545 9.44318L31.2045 10.4432L31.9545 11.4432L40.5455 5L39.7955 4ZM4.95455 8.29545L4.20455 9.29545L12.7955 15.7386L13.5455 14.7386L14.2955 13.7386L5.70455 7.29545L4.95455 8.29545ZM10.6818 4L9.93182 5L18.5227 11.4432L19.2727 10.4432L20.0227 9.44318L11.4318 3L10.6818 4Z" fill="#FAFAFA"/>
</svg>
