<svg width="50" height="50" viewBox="0 0 50 50" fill="none" xmlns="http://www.w3.org/2000/svg">
<path fill-rule="evenodd" clip-rule="evenodd" d="M37.826 12.9006C35.1288 13.7652 34.8433 13.8696 34.9505 13.9518C34.9769 13.9722 36.2663 14.4378 37.8157 14.9863L40.6328 15.9839L43.2485 15.0471C44.6872 14.5318 45.9943 14.061 46.1532 14.0008L46.4422 13.8913L46.2002 13.7987C46.067 13.7478 44.7604 13.3223 43.2965 12.8531L40.6349 12L37.826 12.9006ZM6.88105 13.0851L3.5 13.1155V14.4901V15.8646H4.8293H6.1586V25.9574C6.1586 31.569 6.2031 36.0503 6.2587 36.0503C6.34794 36.0503 9.41666 32.8753 16.793 25.1515C18.8376 23.0106 22.3178 19.3836 26.994 14.5205C27.6774 13.8097 28.2366 13.1891 28.2367 13.1414C28.2367 13.0937 26.5223 13.0805 24.427 13.112L20.6175 13.1694L15.5554 17.8046L10.4933 22.44L10.463 17.8091C10.4465 15.2622 10.3944 13.1505 10.3474 13.1164C10.3005 13.0825 8.74068 13.0683 6.88105 13.0851ZM34.8253 18.424V21.7861L37.2956 22.8969C38.6544 23.5079 39.7994 24.0077 39.8403 24.0077C39.8812 24.0077 39.9009 22.4519 39.8841 20.5503L39.8535 17.093L37.3796 16.0774C36.0191 15.5188 34.8877 15.0618 34.8655 15.0618C34.8434 15.0618 34.8253 16.5748 34.8253 18.424ZM43.7836 16.0962L41.3562 17.1113L41.3255 20.5595C41.3088 22.456 41.339 24.0077 41.3926 24.0077C41.5268 24.0077 46.1759 21.9379 46.3555 21.7982L46.5 21.6858V20.1124C46.5 18.0792 46.368 15.059 46.2797 15.0714C46.2419 15.0767 45.1187 15.5379 43.7836 16.0962ZM22.8998 23.6663C22.0324 23.8115 21.0741 24.117 20.3535 24.4779L19.6828 24.8139V26.7619V28.71H21.3589H23.0349V27.9015C23.0349 26.935 23.2216 26.5177 23.7698 26.2597C24.5035 25.9142 25.5165 26.103 25.8057 26.6393C25.9766 26.9562 25.9524 27.5215 25.7512 27.9075C25.6467 28.1079 24.5992 28.9662 23.1215 30.0622C20.4715 32.0277 19.7693 32.6833 19.5766 33.3716C19.5086 33.6148 19.4527 34.7556 19.4523 35.9069L19.4516 38H24.5376H29.6237V35.7033V33.4065L27.8031 33.4382L25.9825 33.4697L25.9237 34.1245C25.8914 34.4845 25.8067 34.8369 25.7356 34.9075C25.5344 35.1071 24.7914 35.2417 23.873 35.2447L23.0349 35.2474V34.9188C23.0349 34.7381 23.1446 34.4519 23.2786 34.2829C23.4126 34.1138 24.5448 33.2096 25.7947 32.2735C28.2485 30.4356 28.9308 29.7926 29.3112 28.9596L29.5561 28.4233L29.5543 27.2764L29.5526 26.1295L29.2945 25.6018C28.5815 24.1438 27.1565 23.5332 24.5376 23.5633C23.9337 23.5703 23.1967 23.6166 22.8998 23.6663Z" fill="#FAFAFA"/>
</svg>
