<svg width="50" height="50" viewBox="0 0 50 50" fill="none" xmlns="http://www.w3.org/2000/svg">
<path d="M8.96283 4L13.1659 20.0974H13.3355L17.5385 4H20.0013L14.5669 23.7647H11.9345L6.5 4H8.96283Z" fill="#FAFAFA"/>
<path d="M20.1057 23.7647V4H25.4885C26.6634 4 27.6367 4.27987 28.4085 4.83961C29.1803 5.39936 29.7579 6.16498 30.1414 7.13649C30.5248 8.10156 30.7165 9.18888 30.7165 10.3984C30.7165 11.6144 30.5223 12.7082 30.134 13.6797C29.7505 14.6448 29.1705 15.4104 28.3938 15.9766C27.622 16.5363 26.6511 16.8162 25.4811 16.8162H21.7795V14.2877H25.2747C26.017 14.2877 26.6192 14.1204 27.0812 13.7858C27.5433 13.4449 27.8825 12.9816 28.0988 12.3961C28.3151 11.8107 28.4233 11.1448 28.4233 10.3984C28.4233 9.65211 28.3151 8.98943 28.0988 8.41039C27.8825 7.83134 27.5409 7.37776 27.0739 7.04963C26.6118 6.72151 26.0022 6.55745 25.2452 6.55745H22.3842V23.7647H20.1057Z" fill="#FAFAFA"/>
<path d="M43.5 4V23.7647H41.4059L33.7298 9.2693H33.5897V23.7647H31.3112V4H33.4201L41.1035 18.5147H41.2436V4H43.5Z" fill="#FAFAFA"/>
<path d="M7.44103 42.1397V39.727L13.9668 26.2353H15.4194V29.7868H14.4977L9.83012 39.4568V39.6112H18.7745V42.1397H7.44103ZM14.6009 46V41.4062L14.6157 40.3061V26.2353H16.7762V46H14.6009Z" fill="#FAFAFA"/>
<path d="M18.7295 28.8024V26.2353H30.4169V28.8024H25.7051V46H23.434V28.8024H18.7295Z" fill="#FAFAFA"/>
<path d="M32.243 26.2353L36.446 42.3327H36.6156L40.8187 26.2353H43.2815L37.8471 46H35.2146L29.7802 26.2353H32.243Z" fill="#FAFAFA"/>
</svg>
